<mxfile host="Electron" agent="Mozilla/5.0 (X11; Linux x86_64) AppleWebKit/537.36 (KHTML, like Gecko) draw.io/26.0.9 Chrome/128.0.6613.186 Electron/32.3.1 Safari/537.36" version="26.0.9">
  <diagram name="Page-1" id="_koszz9qBcEQP6k0HIVc">
    <mxGraphModel dx="1728" dy="1795" grid="1" gridSize="10" guides="1" tooltips="1" connect="1" arrows="1" fold="1" page="1" pageScale="1" pageWidth="850" pageHeight="1100" math="0" shadow="0" adaptiveColors="auto">
      <root>
        <mxCell id="0" />
        <mxCell id="1" parent="0" />
        <mxCell id="Mi0FA_EbYf_zvgRcC2HL-4" value="L:EAF" style="swimlane;whiteSpace=wrap;html=1;sketch=1;hachureGap=4;jiggle=2;curveFitting=1;fontFamily=Architects Daughter;fontSource=https%3A%2F%2Ffonts.googleapis.com%2Fcss%3Ffamily%3DArchitects%2BDaughter;gradientColor=light-dark(#000000,#21B369);" parent="1" vertex="1">
          <mxGeometry x="210" y="70" width="550" height="410" as="geometry" />
        </mxCell>
        <mxCell id="Mi0FA_EbYf_zvgRcC2HL-5" value="&lt;ul&gt;&lt;li&gt;Defined &lt;b&gt;convex volume&lt;/b&gt; of the map.&lt;/li&gt;&lt;li&gt;NOT objects, simply a 3-dimensional section of the map.&lt;/li&gt;&lt;li&gt;Defined by the &lt;b&gt;planes&lt;/b&gt;&amp;nbsp;of its &lt;b&gt;parent nodes.&lt;/b&gt;&lt;/li&gt;&lt;/ul&gt;" style="text;html=1;align=left;verticalAlign=middle;resizable=0;points=[];autosize=1;strokeColor=none;fillColor=none;fontFamily=Architects Daughter;fontSource=https%3A%2F%2Ffonts.googleapis.com%2Fcss%3Ffamily%3DArchitects%2BDaughter;" parent="Mi0FA_EbYf_zvgRcC2HL-4" vertex="1">
          <mxGeometry y="15" width="370" height="80" as="geometry" />
        </mxCell>
        <mxCell id="Mi0FA_EbYf_zvgRcC2HL-9" value="&lt;div&gt;struct bsp_leaf&lt;/div&gt;&lt;div&gt;{&lt;/div&gt;&lt;div&gt;&amp;nbsp; &amp;nbsp;&lt;/div&gt;&lt;div&gt;&amp;nbsp; &amp;nbsp; u32&amp;nbsp; &amp;nbsp;brush_or;&amp;nbsp; &amp;nbsp; &amp;nbsp; &amp;nbsp; &amp;nbsp; &lt;span style=&quot;white-space: pre;&quot;&gt;&#x9;&lt;/span&gt;// ?&lt;/div&gt;&lt;div&gt;&amp;nbsp; &amp;nbsp;&amp;nbsp;&lt;/div&gt;&lt;div&gt;&amp;nbsp; &amp;nbsp; u16&amp;nbsp; &amp;nbsp;cluster;&amp;nbsp; &amp;nbsp; &amp;nbsp; &amp;nbsp; &amp;nbsp; &amp;nbsp; &amp;nbsp;&lt;span style=&quot;white-space: pre;&quot;&gt;&#x9;&lt;/span&gt;// -1 for cluster indicates no visibility information&lt;/div&gt;&lt;div&gt;&amp;nbsp; &amp;nbsp; u16&amp;nbsp; &amp;nbsp;area;&amp;nbsp; &amp;nbsp; &amp;nbsp; &amp;nbsp; &amp;nbsp; &amp;nbsp; &amp;nbsp; &amp;nbsp; &lt;span style=&quot;white-space: pre;&quot;&gt;&#x9;&lt;/span&gt;// ?&lt;/div&gt;&lt;div&gt;&lt;br&gt;&lt;/div&gt;&lt;div&gt;&amp;nbsp; &amp;nbsp; point3s&amp;nbsp; bbox_min;&amp;nbsp; &amp;nbsp; &amp;nbsp; &amp;nbsp;&lt;span style=&quot;white-space: pre;&quot;&gt;&#x9;&lt;/span&gt;// bounding box minimums&lt;/div&gt;&lt;div&gt;&amp;nbsp; &amp;nbsp; point3s&amp;nbsp; bbox_max;&amp;nbsp; &amp;nbsp; &amp;nbsp; &lt;span style=&quot;white-space: pre;&quot;&gt;&#x9;&lt;/span&gt;// bounding box maximums&lt;/div&gt;&lt;div&gt;&lt;br&gt;&lt;/div&gt;&lt;div&gt;&amp;nbsp; &amp;nbsp; u16&amp;nbsp; &amp;nbsp;first_leaf_face;&amp;nbsp; &lt;span style=&quot;white-space: pre;&quot;&gt;&#x9;&lt;/span&gt;// index of the first face (in the face leaf array)&lt;/div&gt;&lt;div&gt;&amp;nbsp; &amp;nbsp; u16&amp;nbsp; &amp;nbsp;num_leaf_faces;&amp;nbsp; &lt;span style=&quot;white-space: pre;&quot;&gt;&#x9;&lt;/span&gt;// number of consecutive edges (in the face leaf array)&lt;/div&gt;&lt;div&gt;&lt;br&gt;&lt;/div&gt;&lt;div&gt;&amp;nbsp; &amp;nbsp; u16&amp;nbsp; &amp;nbsp;first_leaf_brush;&amp;nbsp; &lt;span style=&quot;white-space: pre;&quot;&gt;&#x9;&lt;/span&gt;// ?&lt;/div&gt;&lt;div&gt;&amp;nbsp; &amp;nbsp; u16&amp;nbsp; &amp;nbsp;num_leaf_brushes;&amp;nbsp; &lt;span style=&quot;white-space: pre;&quot;&gt;&#x9;&lt;/span&gt;// ?&lt;/div&gt;&lt;div&gt;&lt;br&gt;&lt;/div&gt;&lt;div&gt;};&lt;/div&gt;" style="text;html=1;align=left;verticalAlign=middle;resizable=0;points=[];autosize=1;strokeColor=none;fillColor=default;fontFamily=Architects Daughter;fontSource=https%3A%2F%2Ffonts.googleapis.com%2Fcss%3Ffamily%3DArchitects%2BDaughter;rounded=0;glass=0;" parent="Mi0FA_EbYf_zvgRcC2HL-4" vertex="1">
          <mxGeometry x="10" y="110" width="540" height="270" as="geometry" />
        </mxCell>
        <mxCell id="Mi0FA_EbYf_zvgRcC2HL-7" value="BRUSH" style="swimlane;whiteSpace=wrap;html=1;sketch=1;hachureGap=4;jiggle=2;curveFitting=1;fontFamily=Architects Daughter;fontSource=https%3A%2F%2Ffonts.googleapis.com%2Fcss%3Ffamily%3DArchitects%2BDaughter;gradientColor=light-dark(#000000,#21B369);" parent="1" vertex="1">
          <mxGeometry x="245" y="610" width="360" height="230" as="geometry" />
        </mxCell>
        <mxCell id="Mi0FA_EbYf_zvgRcC2HL-8" value="&lt;ul&gt;&lt;li&gt;Solid geometry defined by &lt;b&gt;planes (not edges/verts).&lt;/b&gt;&lt;/li&gt;&lt;li&gt;Actual objects in the map.&lt;/li&gt;&lt;/ul&gt;" style="text;html=1;align=left;verticalAlign=middle;resizable=0;points=[];autosize=1;strokeColor=none;fillColor=none;fontFamily=Architects Daughter;fontSource=https%3A%2F%2Ffonts.googleapis.com%2Fcss%3Ffamily%3DArchitects%2BDaughter;" parent="Mi0FA_EbYf_zvgRcC2HL-7" vertex="1">
          <mxGeometry y="20" width="350" height="70" as="geometry" />
        </mxCell>
        <mxCell id="Mi0FA_EbYf_zvgRcC2HL-13" style="edgeStyle=orthogonalEdgeStyle;rounded=0;sketch=1;hachureGap=4;jiggle=2;curveFitting=1;orthogonalLoop=1;jettySize=auto;html=1;fontFamily=Architects Daughter;fontSource=https%3A%2F%2Ffonts.googleapis.com%2Fcss%3Ffamily%3DArchitects%2BDaughter;" parent="1" source="Mi0FA_EbYf_zvgRcC2HL-10" target="Mi0FA_EbYf_zvgRcC2HL-4" edge="1">
          <mxGeometry relative="1" as="geometry" />
        </mxCell>
        <mxCell id="Mi0FA_EbYf_zvgRcC2HL-10" value="NODE" style="swimlane;whiteSpace=wrap;html=1;sketch=1;hachureGap=4;jiggle=2;curveFitting=1;fontFamily=Architects Daughter;fontSource=https%3A%2F%2Ffonts.googleapis.com%2Fcss%3Ffamily%3DArchitects%2BDaughter;gradientColor=light-dark(#000000,#21B369);" parent="1" vertex="1">
          <mxGeometry x="580" y="-660" width="580" height="510" as="geometry" />
        </mxCell>
        <mxCell id="Mi0FA_EbYf_zvgRcC2HL-11" value="&lt;ul&gt;&lt;li&gt;Nodes are logical/hierarchical structures, not objects/entities in the map.&lt;/li&gt;&lt;li&gt;Is essentially a &quot;decision point&quot; in the BSP &quot;tree,&quot; dividing a space into 2 child nodes.&lt;/li&gt;&lt;li&gt;The plane property points to the plane that is this dividing point.&amp;nbsp;&lt;/li&gt;&lt;/ul&gt;&lt;div&gt;&lt;ul&gt;&lt;li&gt;The first_face &amp;amp; num_faces tell us all the faces because they are &lt;b&gt;consecutive&lt;/b&gt;&lt;/li&gt;&lt;/ul&gt;&lt;/div&gt;" style="text;html=1;align=left;verticalAlign=middle;resizable=0;points=[];autosize=1;strokeColor=none;fillColor=none;fontFamily=Architects Daughter;fontSource=https%3A%2F%2Ffonts.googleapis.com%2Fcss%3Ffamily%3DArchitects%2BDaughter;" parent="Mi0FA_EbYf_zvgRcC2HL-10" vertex="1">
          <mxGeometry x="20" y="20" width="520" height="110" as="geometry" />
        </mxCell>
        <mxCell id="Mi0FA_EbYf_zvgRcC2HL-14" value="&lt;div&gt;struct bsp_node&lt;/div&gt;&lt;div&gt;{&lt;/div&gt;&lt;div&gt;&lt;br&gt;&lt;/div&gt;&lt;div&gt;&amp;nbsp; &amp;nbsp; uint32&amp;nbsp; &amp;nbsp;plane;&amp;nbsp; &amp;nbsp; &amp;nbsp; &amp;nbsp; &amp;nbsp; &amp;nbsp; &amp;nbsp;// index of the splitting plane (in the plane array)&lt;/div&gt;&lt;div&gt;&amp;nbsp; &amp;nbsp;&amp;nbsp;&lt;/div&gt;&lt;div&gt;&amp;nbsp; &amp;nbsp; int32&amp;nbsp; &amp;nbsp; front_child;&amp;nbsp; &amp;nbsp; &amp;nbsp; &amp;nbsp;// index of the front child node or leaf - NEGATIVE indicates leaf&lt;/div&gt;&lt;div&gt;&amp;nbsp; &amp;nbsp; int32&amp;nbsp; &amp;nbsp; back_child;&amp;nbsp; &amp;nbsp; &amp;nbsp; &amp;nbsp; // index of the back child node or leaf - NEGATIVE indicates leaf&lt;/div&gt;&lt;div&gt;&amp;nbsp; &amp;nbsp;&lt;/div&gt;&lt;div&gt;&amp;nbsp; &amp;nbsp; point3s&amp;nbsp; bbox_min;&amp;nbsp; &amp;nbsp; &amp;nbsp; &amp;nbsp; &amp;nbsp; // minimum x, y and z of the bounding box&lt;/div&gt;&lt;div&gt;&amp;nbsp; &amp;nbsp; point3s&amp;nbsp; bbox_max;&amp;nbsp; &amp;nbsp; &amp;nbsp; &amp;nbsp; &amp;nbsp; // maximum x, y and z of the bounding box&lt;/div&gt;&lt;div&gt;&lt;span style=&quot;white-space-collapse: preserve; white-space-collapse: collapse;&quot;&gt;&#x9;&lt;/span&gt;&lt;/div&gt;&lt;div&gt;&amp;nbsp; &amp;nbsp; uint16&amp;nbsp; &amp;nbsp;first_face;&amp;nbsp; &amp;nbsp; &amp;nbsp; &amp;nbsp; // index of the first face (in the face array)&lt;/div&gt;&lt;div&gt;&amp;nbsp; &amp;nbsp; uint16&amp;nbsp; &amp;nbsp;num_faces;&amp;nbsp; &amp;nbsp; &amp;nbsp; &amp;nbsp; &amp;nbsp;// number of consecutive edges (in the face array)&lt;/div&gt;&lt;div&gt;&lt;br&gt;&lt;/div&gt;&lt;div&gt;};&lt;/div&gt;" style="text;html=1;align=left;verticalAlign=middle;resizable=0;points=[];autosize=1;strokeColor=none;fillColor=default;fontFamily=Architects Daughter;fontSource=https%3A%2F%2Ffonts.googleapis.com%2Fcss%3Ffamily%3DArchitects%2BDaughter;" parent="Mi0FA_EbYf_zvgRcC2HL-10" vertex="1">
          <mxGeometry x="20" y="180" width="550" height="210" as="geometry" />
        </mxCell>
        <mxCell id="Mi0FA_EbYf_zvgRcC2HL-47" value="If child is leaf:&lt;br&gt;position in leaf array:&lt;br&gt;&lt;div style=&quot;&quot;&gt;&lt;b&gt;-(index + 1)&lt;/b&gt;&lt;/div&gt;" style="text;html=1;align=center;verticalAlign=middle;resizable=0;points=[];autosize=1;strokeColor=#d6b656;fillColor=#fff2cc;fontFamily=Architects Daughter;fontSource=https%3A%2F%2Ffonts.googleapis.com%2Fcss%3Ffamily%3DArchitects%2BDaughter;" parent="Mi0FA_EbYf_zvgRcC2HL-10" vertex="1">
          <mxGeometry x="30" y="413" width="140" height="60" as="geometry" />
        </mxCell>
        <mxCell id="Mi0FA_EbYf_zvgRcC2HL-48" value="1st negative number maps to 0" style="text;html=1;align=center;verticalAlign=middle;resizable=0;points=[];autosize=1;strokeColor=default;fillColor=none;fontFamily=Architects Daughter;fontSource=https%3A%2F%2Ffonts.googleapis.com%2Fcss%3Ffamily%3DArchitects%2BDaughter;" parent="Mi0FA_EbYf_zvgRcC2HL-10" vertex="1">
          <mxGeometry x="270" y="428" width="190" height="30" as="geometry" />
        </mxCell>
        <mxCell id="Mi0FA_EbYf_zvgRcC2HL-49" style="edgeStyle=orthogonalEdgeStyle;rounded=0;sketch=1;hachureGap=4;jiggle=2;curveFitting=1;orthogonalLoop=1;jettySize=auto;html=1;entryX=0.01;entryY=0.538;entryDx=0;entryDy=0;entryPerimeter=0;fontFamily=Architects Daughter;fontSource=https%3A%2F%2Ffonts.googleapis.com%2Fcss%3Ffamily%3DArchitects%2BDaughter;" parent="Mi0FA_EbYf_zvgRcC2HL-10" source="Mi0FA_EbYf_zvgRcC2HL-47" target="Mi0FA_EbYf_zvgRcC2HL-48" edge="1">
          <mxGeometry relative="1" as="geometry" />
        </mxCell>
        <mxCell id="Mi0FA_EbYf_zvgRcC2HL-19" value="FACE" style="swimlane;whiteSpace=wrap;html=1;sketch=1;hachureGap=4;jiggle=2;curveFitting=1;fontFamily=Architects Daughter;fontSource=https%3A%2F%2Ffonts.googleapis.com%2Fcss%3Ffamily%3DArchitects%2BDaughter;gradientColor=light-dark(#000000,#21B369);" parent="1" vertex="1">
          <mxGeometry x="1570" y="-560" width="560" height="330" as="geometry" />
        </mxCell>
        <mxCell id="Mi0FA_EbYf_zvgRcC2HL-20" value="&lt;ul&gt;&lt;li&gt;These are the visible surfaces of the level.&lt;/li&gt;&lt;/ul&gt;" style="text;html=1;align=left;verticalAlign=middle;resizable=0;points=[];autosize=1;strokeColor=none;fillColor=none;fontFamily=Architects Daughter;fontSource=https%3A%2F%2Ffonts.googleapis.com%2Fcss%3Ffamily%3DArchitects%2BDaughter;" parent="Mi0FA_EbYf_zvgRcC2HL-19" vertex="1">
          <mxGeometry y="30" width="300" height="50" as="geometry" />
        </mxCell>
        <mxCell id="Mi0FA_EbYf_zvgRcC2HL-21" value="&lt;div&gt;struct bsp_face&lt;/div&gt;&lt;div&gt;{&lt;/div&gt;&lt;div&gt;&lt;br&gt;&lt;/div&gt;&lt;div&gt;&amp;nbsp; &amp;nbsp; uint16&amp;nbsp; &amp;nbsp;plane;&amp;nbsp; &amp;nbsp; &amp;nbsp; &amp;nbsp; &amp;nbsp; &amp;nbsp; &amp;nbsp;&lt;span style=&quot;white-space: pre;&quot;&gt;&#x9;&lt;/span&gt;// index of the plane the face is parallel to&lt;/div&gt;&lt;div&gt;&amp;nbsp; &amp;nbsp; uint16&amp;nbsp; &amp;nbsp;plane_side;&amp;nbsp; &amp;nbsp; &amp;nbsp; &amp;nbsp; &lt;span style=&quot;white-space: pre;&quot;&gt;&#x9;&lt;/span&gt;// set if the normal is parallel to the plane normal&lt;/div&gt;&lt;div&gt;&lt;br&gt;&lt;/div&gt;&lt;div&gt;&amp;nbsp; &amp;nbsp; uint32&amp;nbsp; &amp;nbsp;first_edge;&amp;nbsp; &amp;nbsp; &amp;nbsp; &amp;nbsp; &lt;span style=&quot;white-space: pre;&quot;&gt;&#x9;&lt;/span&gt;// index of the first edge (in the face edge array)&lt;/div&gt;&lt;div&gt;&amp;nbsp; &amp;nbsp; uint16&amp;nbsp; &amp;nbsp;num_edges;&amp;nbsp; &amp;nbsp; &amp;nbsp; &amp;nbsp; &amp;nbsp;&lt;span style=&quot;white-space: pre;&quot;&gt;&#x9;&lt;/span&gt;// number of consecutive edges (in the face edge array)&lt;/div&gt;&lt;div&gt;&lt;span style=&quot;white-space-collapse: preserve; white-space-collapse: collapse;&quot;&gt;&#x9;&lt;/span&gt;&lt;/div&gt;&lt;div&gt;&amp;nbsp; &amp;nbsp; uint16&amp;nbsp; &amp;nbsp;texture_info;&amp;nbsp; &amp;nbsp; &amp;nbsp; &lt;span style=&quot;white-space: pre;&quot;&gt;&#x9;&lt;/span&gt;// index of the texture info structure&lt;span style=&quot;white-space-collapse: preserve;&quot;&gt;&#x9;&lt;/span&gt;&lt;/div&gt;&lt;div&gt;&amp;nbsp; &amp;nbsp;&lt;/div&gt;&lt;div&gt;&amp;nbsp; &amp;nbsp; uint8&amp;nbsp; &amp;nbsp; lightmap_syles[4]; &lt;span style=&quot;white-space: pre;&quot;&gt;&#x9;&lt;/span&gt;// styles (bit flags) for the lightmaps&lt;/div&gt;&lt;div&gt;&amp;nbsp; &amp;nbsp; uint32&amp;nbsp; &amp;nbsp;lightmap_offset;&amp;nbsp; &amp;nbsp;&lt;span style=&quot;white-space: pre;&quot;&gt;&#x9;&lt;/span&gt;// offset of the lightmap (in bytes) in the lightmap lump&lt;/div&gt;&lt;div&gt;&lt;br&gt;&lt;/div&gt;&lt;div style=&quot;&quot;&gt;};&lt;/div&gt;" style="text;html=1;align=left;verticalAlign=middle;resizable=0;points=[];autosize=1;strokeColor=none;fillColor=default;fontFamily=Architects Daughter;fontSource=https%3A%2F%2Ffonts.googleapis.com%2Fcss%3Ffamily%3DArchitects%2BDaughter;" parent="Mi0FA_EbYf_zvgRcC2HL-19" vertex="1">
          <mxGeometry x="10" y="110" width="540" height="210" as="geometry" />
        </mxCell>
        <mxCell id="Mi0FA_EbYf_zvgRcC2HL-32" style="edgeStyle=orthogonalEdgeStyle;rounded=0;sketch=1;hachureGap=4;jiggle=2;curveFitting=1;orthogonalLoop=1;jettySize=auto;html=1;fontFamily=Architects Daughter;fontSource=https%3A%2F%2Ffonts.googleapis.com%2Fcss%3Ffamily%3DArchitects%2BDaughter;" parent="1" source="Mi0FA_EbYf_zvgRcC2HL-22" target="Mi0FA_EbYf_zvgRcC2HL-29" edge="1">
          <mxGeometry relative="1" as="geometry" />
        </mxCell>
        <mxCell id="Mi0FA_EbYf_zvgRcC2HL-33" value="&lt;b&gt;&lt;font style=&quot;color: light-dark(rgb(0, 0, 0), rgb(255, 102, 255));&quot;&gt;By index&lt;br&gt;(order in lump)&lt;/font&gt;&lt;/b&gt;" style="edgeLabel;html=1;align=center;verticalAlign=middle;resizable=0;points=[];sketch=1;hachureGap=4;jiggle=2;curveFitting=1;fontFamily=Architects Daughter;fontSource=https%3A%2F%2Ffonts.googleapis.com%2Fcss%3Ffamily%3DArchitects%2BDaughter;" parent="Mi0FA_EbYf_zvgRcC2HL-32" vertex="1" connectable="0">
          <mxGeometry x="0.029" y="-1" relative="1" as="geometry">
            <mxPoint as="offset" />
          </mxGeometry>
        </mxCell>
        <mxCell id="Mi0FA_EbYf_zvgRcC2HL-22" value="EDGE" style="swimlane;whiteSpace=wrap;html=1;sketch=1;hachureGap=4;jiggle=2;curveFitting=1;fontFamily=Architects Daughter;fontSource=https%3A%2F%2Ffonts.googleapis.com%2Fcss%3Ffamily%3DArchitects%2BDaughter;gradientColor=light-dark(#000000,#21B369);" parent="1" vertex="1">
          <mxGeometry x="1665" y="330" width="370" height="230" as="geometry" />
        </mxCell>
        <mxCell id="Mi0FA_EbYf_zvgRcC2HL-23" value="&lt;ul&gt;&lt;li&gt;Points to 2 vertices by their index (in the vertex lump)&lt;/li&gt;&lt;/ul&gt;" style="text;html=1;align=left;verticalAlign=middle;resizable=0;points=[];autosize=1;strokeColor=none;fillColor=none;fontFamily=Architects Daughter;fontSource=https%3A%2F%2Ffonts.googleapis.com%2Fcss%3Ffamily%3DArchitects%2BDaughter;" parent="Mi0FA_EbYf_zvgRcC2HL-22" vertex="1">
          <mxGeometry y="30" width="370" height="50" as="geometry" />
        </mxCell>
        <mxCell id="Mi0FA_EbYf_zvgRcC2HL-24" value="&lt;div&gt;struct bsp_edge&lt;/div&gt;&lt;div&gt;{&lt;/div&gt;&lt;div&gt;&amp;nbsp; &amp;nbsp; u16 vert_idx_1;&lt;/div&gt;&lt;div&gt;&amp;nbsp; &amp;nbsp; u16 vert_idx_2;&lt;/div&gt;&lt;div&gt;};&lt;/div&gt;" style="text;html=1;align=left;verticalAlign=middle;resizable=0;points=[];autosize=1;strokeColor=none;fillColor=default;fontFamily=Architects Daughter;fontSource=https%3A%2F%2Ffonts.googleapis.com%2Fcss%3Ffamily%3DArchitects%2BDaughter;" parent="Mi0FA_EbYf_zvgRcC2HL-22" vertex="1">
          <mxGeometry x="20" y="130" width="130" height="90" as="geometry" />
        </mxCell>
        <mxCell id="Mi0FA_EbYf_zvgRcC2HL-27" style="edgeStyle=orthogonalEdgeStyle;rounded=0;sketch=1;hachureGap=4;jiggle=2;curveFitting=1;orthogonalLoop=1;jettySize=auto;html=1;fontFamily=Architects Daughter;fontSource=https%3A%2F%2Ffonts.googleapis.com%2Fcss%3Ffamily%3DArchitects%2BDaughter;entryX=0.5;entryY=0;entryDx=0;entryDy=0;" parent="1" source="Mi0FA_EbYf_zvgRcC2HL-21" target="GezH2M0aC1q7fJkez5dh-2" edge="1">
          <mxGeometry relative="1" as="geometry" />
        </mxCell>
        <mxCell id="Mi0FA_EbYf_zvgRcC2HL-28" value="first_edge by index&lt;br&gt;num_edges (incremental after first_edge)" style="edgeLabel;html=1;align=center;verticalAlign=middle;resizable=0;points=[];sketch=1;hachureGap=4;jiggle=2;curveFitting=1;fontFamily=Architects Daughter;fontSource=https%3A%2F%2Ffonts.googleapis.com%2Fcss%3Ffamily%3DArchitects%2BDaughter;fontStyle=1;fontColor=light-dark(#000000,#FF84DE);" parent="Mi0FA_EbYf_zvgRcC2HL-27" vertex="1" connectable="0">
          <mxGeometry x="-0.0155" y="3" relative="1" as="geometry">
            <mxPoint as="offset" />
          </mxGeometry>
        </mxCell>
        <mxCell id="Mi0FA_EbYf_zvgRcC2HL-29" value="VERTEX" style="swimlane;whiteSpace=wrap;html=1;sketch=1;hachureGap=4;jiggle=2;curveFitting=1;fontFamily=Architects Daughter;fontSource=https%3A%2F%2Ffonts.googleapis.com%2Fcss%3Ffamily%3DArchitects%2BDaughter;gradientColor=light-dark(#000000,#21B369);" parent="1" vertex="1">
          <mxGeometry x="1665" y="670" width="370" height="230" as="geometry" />
        </mxCell>
        <mxCell id="Mi0FA_EbYf_zvgRcC2HL-30" value="&lt;ul&gt;&lt;li&gt;3 floats, &#39;nuff said&lt;/li&gt;&lt;/ul&gt;" style="text;html=1;align=left;verticalAlign=middle;resizable=0;points=[];autosize=1;strokeColor=none;fillColor=none;fontFamily=Architects Daughter;fontSource=https%3A%2F%2Ffonts.googleapis.com%2Fcss%3Ffamily%3DArchitects%2BDaughter;" parent="Mi0FA_EbYf_zvgRcC2HL-29" vertex="1">
          <mxGeometry y="30" width="170" height="50" as="geometry" />
        </mxCell>
        <mxCell id="Mi0FA_EbYf_zvgRcC2HL-31" value="&lt;div&gt;struct point3f&lt;/div&gt;&lt;div&gt;{&lt;/div&gt;&lt;div&gt;&lt;br&gt;&lt;/div&gt;&lt;div&gt;&amp;nbsp; &amp;nbsp; float x;&lt;/div&gt;&lt;div&gt;&amp;nbsp; &amp;nbsp; float y;&lt;/div&gt;&lt;div&gt;&amp;nbsp; &amp;nbsp; float z;&lt;/div&gt;&lt;div&gt;&lt;br&gt;&lt;/div&gt;&lt;div&gt;};&lt;/div&gt;" style="text;html=1;align=left;verticalAlign=middle;resizable=0;points=[];autosize=1;strokeColor=none;fillColor=default;fontFamily=Architects Daughter;fontSource=https%3A%2F%2Ffonts.googleapis.com%2Fcss%3Ffamily%3DArchitects%2BDaughter;" parent="Mi0FA_EbYf_zvgRcC2HL-29" vertex="1">
          <mxGeometry x="20" y="90" width="100" height="130" as="geometry" />
        </mxCell>
        <mxCell id="Mi0FA_EbYf_zvgRcC2HL-37" style="edgeStyle=orthogonalEdgeStyle;rounded=0;sketch=1;hachureGap=4;jiggle=2;curveFitting=1;orthogonalLoop=1;jettySize=auto;html=1;entryX=0.5;entryY=0;entryDx=0;entryDy=0;fontFamily=Architects Daughter;fontSource=https%3A%2F%2Ffonts.googleapis.com%2Fcss%3Ffamily%3DArchitects%2BDaughter;exitX=0.999;exitY=0.745;exitDx=0;exitDy=0;exitPerimeter=0;" parent="1" source="Mi0FA_EbYf_zvgRcC2HL-14" target="Mi0FA_EbYf_zvgRcC2HL-34" edge="1">
          <mxGeometry relative="1" as="geometry" />
        </mxCell>
        <mxCell id="Mi0FA_EbYf_zvgRcC2HL-46" value="" style="group" parent="1" vertex="1" connectable="0">
          <mxGeometry x="860" y="80" width="620" height="500" as="geometry" />
        </mxCell>
        <mxCell id="Mi0FA_EbYf_zvgRcC2HL-34" value="PLANE" style="swimlane;whiteSpace=wrap;html=1;sketch=1;hachureGap=4;jiggle=2;curveFitting=1;fontFamily=Architects Daughter;fontSource=https%3A%2F%2Ffonts.googleapis.com%2Fcss%3Ffamily%3DArchitects%2BDaughter;gradientColor=light-dark(#000000,#21B369);" parent="Mi0FA_EbYf_zvgRcC2HL-46" vertex="1">
          <mxGeometry x="110" width="510" height="500" as="geometry" />
        </mxCell>
        <mxCell id="Mi0FA_EbYf_zvgRcC2HL-35" value="&lt;ul&gt;&lt;li&gt;Splitting planes of the BSP tree&lt;/li&gt;&lt;li&gt;So, this NOT geometry/faces, but used in sectioning/logic&amp;nbsp;&lt;br&gt;for the BSP tree!&lt;br&gt;** The normal is basically a vector that elucidates the&lt;br&gt;orientation of the plane relative to the origin **&lt;/li&gt;&lt;/ul&gt;" style="text;html=1;align=left;verticalAlign=middle;resizable=0;points=[];autosize=1;strokeColor=none;fillColor=none;fontFamily=Architects Daughter;fontSource=https%3A%2F%2Ffonts.googleapis.com%2Fcss%3Ffamily%3DArchitects%2BDaughter;" parent="Mi0FA_EbYf_zvgRcC2HL-34" vertex="1">
          <mxGeometry x="20" y="15" width="390" height="110" as="geometry" />
        </mxCell>
        <mxCell id="Mi0FA_EbYf_zvgRcC2HL-42" style="edgeStyle=orthogonalEdgeStyle;rounded=0;sketch=1;hachureGap=4;jiggle=2;curveFitting=1;orthogonalLoop=1;jettySize=auto;html=1;fontFamily=Architects Daughter;fontSource=https%3A%2F%2Ffonts.googleapis.com%2Fcss%3Ffamily%3DArchitects%2BDaughter;exitX=1.006;exitY=0.495;exitDx=0;exitDy=0;exitPerimeter=0;fillColor=#d5e8d4;strokeColor=#82b366;" parent="Mi0FA_EbYf_zvgRcC2HL-34" source="Mi0FA_EbYf_zvgRcC2HL-36" target="Mi0FA_EbYf_zvgRcC2HL-39" edge="1">
          <mxGeometry relative="1" as="geometry">
            <Array as="points">
              <mxPoint x="423" y="290" />
              <mxPoint x="200" y="290" />
            </Array>
          </mxGeometry>
        </mxCell>
        <mxCell id="Mi0FA_EbYf_zvgRcC2HL-43" value="normal (A, B, C)" style="edgeLabel;html=1;align=center;verticalAlign=middle;resizable=0;points=[];sketch=1;hachureGap=4;jiggle=2;curveFitting=1;fontFamily=Architects Daughter;fontSource=https%3A%2F%2Ffonts.googleapis.com%2Fcss%3Ffamily%3DArchitects%2BDaughter;" parent="Mi0FA_EbYf_zvgRcC2HL-42" vertex="1" connectable="0">
          <mxGeometry x="0.0844" y="1" relative="1" as="geometry">
            <mxPoint as="offset" />
          </mxGeometry>
        </mxCell>
        <mxCell id="Mi0FA_EbYf_zvgRcC2HL-36" value="&lt;div&gt;struct bsp_plane&lt;/div&gt;&lt;div&gt;{&lt;/div&gt;&lt;div&gt;&lt;br&gt;&lt;/div&gt;&lt;div&gt;&amp;nbsp; &amp;nbsp; point3f&amp;nbsp; &amp;nbsp;normal;&amp;nbsp; &amp;nbsp; &amp;nbsp;// A, B, C components of the plane equation&lt;/div&gt;&lt;div&gt;&amp;nbsp; &amp;nbsp; float&amp;nbsp; &amp;nbsp; &amp;nbsp;distance;&amp;nbsp; &amp;nbsp; // D component of the plane equation&lt;/div&gt;&lt;div&gt;&amp;nbsp; &amp;nbsp; uint32&amp;nbsp; &amp;nbsp; type;&amp;nbsp; &amp;nbsp; &amp;nbsp; &amp;nbsp; // ?&lt;/div&gt;&lt;div&gt;&lt;br&gt;&lt;/div&gt;&lt;div&gt;};&lt;/div&gt;" style="text;html=1;align=left;verticalAlign=middle;resizable=0;points=[];autosize=1;strokeColor=none;fillColor=default;fontFamily=Architects Daughter;fontSource=https%3A%2F%2Ffonts.googleapis.com%2Fcss%3Ffamily%3DArchitects%2BDaughter;" parent="Mi0FA_EbYf_zvgRcC2HL-34" vertex="1">
          <mxGeometry x="10" y="140" width="410" height="130" as="geometry" />
        </mxCell>
        <mxCell id="Mi0FA_EbYf_zvgRcC2HL-39" value="&lt;div style=&quot;text-align: left;&quot;&gt;&lt;span style=&quot;background-color: transparent; color: light-dark(rgb(0, 0, 0), rgb(255, 255, 255));&quot;&gt;EQUATION:&lt;/span&gt;&lt;/div&gt;F(x, y, z) = Ax + By + Cz - D" style="text;html=1;align=center;verticalAlign=middle;resizable=0;points=[];autosize=1;strokeColor=default;fillColor=none;fontFamily=Architects Daughter;fontSource=https%3A%2F%2Ffonts.googleapis.com%2Fcss%3Ffamily%3DArchitects%2BDaughter;" parent="Mi0FA_EbYf_zvgRcC2HL-34" vertex="1">
          <mxGeometry x="145" y="330" width="180" height="40" as="geometry" />
        </mxCell>
        <mxCell id="Mi0FA_EbYf_zvgRcC2HL-44" value="result = 0, that vertex is on the plane,&lt;br&gt;result &amp;gt; 0, in front of the plane,&lt;div&gt;result &amp;lt; 0, behind the plane&lt;/div&gt;" style="text;html=1;align=center;verticalAlign=middle;resizable=0;points=[];autosize=1;strokeColor=#b85450;fillColor=#f8cecc;fontFamily=Architects Daughter;fontSource=https%3A%2F%2Ffonts.googleapis.com%2Fcss%3Ffamily%3DArchitects%2BDaughter;fontStyle=1" parent="Mi0FA_EbYf_zvgRcC2HL-34" vertex="1">
          <mxGeometry x="110" y="405" width="230" height="60" as="geometry" />
        </mxCell>
        <mxCell id="Mi0FA_EbYf_zvgRcC2HL-45" style="edgeStyle=orthogonalEdgeStyle;rounded=0;sketch=1;hachureGap=4;jiggle=2;curveFitting=1;orthogonalLoop=1;jettySize=auto;html=1;entryX=0.538;entryY=0.029;entryDx=0;entryDy=0;entryPerimeter=0;fontFamily=Architects Daughter;fontSource=https%3A%2F%2Ffonts.googleapis.com%2Fcss%3Ffamily%3DArchitects%2BDaughter;" parent="Mi0FA_EbYf_zvgRcC2HL-34" source="Mi0FA_EbYf_zvgRcC2HL-39" target="Mi0FA_EbYf_zvgRcC2HL-44" edge="1">
          <mxGeometry relative="1" as="geometry" />
        </mxCell>
        <mxCell id="Mi0FA_EbYf_zvgRcC2HL-40" value="VERTEX&lt;br&gt;(x, y, z)" style="ellipse;whiteSpace=wrap;html=1;sketch=1;hachureGap=4;jiggle=2;curveFitting=1;fontFamily=Architects Daughter;fontSource=https%3A%2F%2Ffonts.googleapis.com%2Fcss%3Ffamily%3DArchitects%2BDaughter;fillColor=#dae8fc;strokeColor=#6c8ebf;" parent="Mi0FA_EbYf_zvgRcC2HL-46" vertex="1">
          <mxGeometry y="330" width="50" height="50" as="geometry" />
        </mxCell>
        <mxCell id="Mi0FA_EbYf_zvgRcC2HL-41" style="edgeStyle=orthogonalEdgeStyle;rounded=0;sketch=1;hachureGap=4;jiggle=2;curveFitting=1;orthogonalLoop=1;jettySize=auto;html=1;entryX=-0.003;entryY=0.625;entryDx=0;entryDy=0;entryPerimeter=0;fontFamily=Architects Daughter;fontSource=https%3A%2F%2Ffonts.googleapis.com%2Fcss%3Ffamily%3DArchitects%2BDaughter;" parent="Mi0FA_EbYf_zvgRcC2HL-46" source="Mi0FA_EbYf_zvgRcC2HL-40" target="Mi0FA_EbYf_zvgRcC2HL-39" edge="1">
          <mxGeometry relative="1" as="geometry" />
        </mxCell>
        <mxCell id="Mi0FA_EbYf_zvgRcC2HL-59" value="" style="group" parent="1" vertex="1" connectable="0">
          <mxGeometry x="2280" y="-310" width="720" height="570" as="geometry" />
        </mxCell>
        <mxCell id="Mi0FA_EbYf_zvgRcC2HL-50" value="TEXTURE INFORMATION" style="swimlane;whiteSpace=wrap;html=1;sketch=1;hachureGap=4;jiggle=2;curveFitting=1;fontFamily=Architects Daughter;fontSource=https%3A%2F%2Ffonts.googleapis.com%2Fcss%3Ffamily%3DArchitects%2BDaughter;gradientColor=light-dark(#000000,#21B369);" parent="Mi0FA_EbYf_zvgRcC2HL-59" vertex="1">
          <mxGeometry x="110" y="10" width="610" height="570" as="geometry" />
        </mxCell>
        <mxCell id="Mi0FA_EbYf_zvgRcC2HL-52" value="&lt;div&gt;struct bsp_texinfo&lt;/div&gt;&lt;div&gt;{&lt;/div&gt;&lt;div&gt;&lt;br&gt;&lt;/div&gt;&lt;div&gt;&amp;nbsp; &amp;nbsp; point3f&amp;nbsp; u_axis;&lt;/div&gt;&lt;div&gt;&amp;nbsp; &amp;nbsp; float&amp;nbsp; &amp;nbsp; u_offset;&lt;/div&gt;&lt;div&gt;&amp;nbsp; &amp;nbsp;&lt;/div&gt;&lt;div&gt;&amp;nbsp; &amp;nbsp; point3f&amp;nbsp; v_axis;&lt;/div&gt;&lt;div&gt;&amp;nbsp; &amp;nbsp; float&amp;nbsp; &amp;nbsp; v_offset;&lt;/div&gt;&lt;div&gt;&lt;br&gt;&lt;/div&gt;&lt;div&gt;&amp;nbsp; &amp;nbsp; uint32&amp;nbsp; &amp;nbsp;flags;&lt;span style=&quot;white-space: pre;&quot;&gt;&#x9;&lt;/span&gt;&lt;span style=&quot;white-space: pre;&quot;&gt;&#x9;&lt;/span&gt;&lt;span style=&quot;white-space: pre;&quot;&gt;&#x9;&lt;/span&gt;// miptex flags &amp;amp; overrides&lt;/div&gt;&lt;div&gt;&amp;nbsp; &amp;nbsp; uint32&amp;nbsp; &amp;nbsp;value;&lt;span style=&quot;white-space: pre;&quot;&gt;&#x9;&lt;/span&gt;&lt;span style=&quot;white-space: pre;&quot;&gt;&#x9;&lt;/span&gt;&lt;span style=&quot;white-space: pre;&quot;&gt;&#x9;&lt;/span&gt;// light emission, etc...&lt;/div&gt;&lt;div&gt;&lt;br&gt;&lt;/div&gt;&lt;div&gt;&amp;nbsp; &amp;nbsp; char&amp;nbsp; &amp;nbsp; &amp;nbsp;texture_name[32];&lt;/div&gt;&lt;div&gt;&lt;br&gt;&lt;/div&gt;&lt;div&gt;&amp;nbsp; &amp;nbsp; uint32&amp;nbsp; &amp;nbsp;next_texinfo;&lt;span style=&quot;white-space: pre;&quot;&gt;&#x9;&lt;/span&gt;&lt;span style=&quot;white-space: pre;&quot;&gt;&#x9;&lt;/span&gt;&lt;span style=&quot;background-color: transparent;&quot;&gt;// for animations, -1 = end of chain&lt;/span&gt;&lt;/div&gt;&lt;div&gt;&lt;br&gt;&lt;/div&gt;&lt;div&gt;};&lt;/div&gt;" style="text;html=1;align=left;verticalAlign=middle;resizable=0;points=[];autosize=1;strokeColor=none;fillColor=default;fontFamily=Architects Daughter;fontSource=https%3A%2F%2Ffonts.googleapis.com%2Fcss%3Ffamily%3DArchitects%2BDaughter;" parent="Mi0FA_EbYf_zvgRcC2HL-50" vertex="1">
          <mxGeometry x="20" y="110" width="410" height="260" as="geometry" />
        </mxCell>
        <mxCell id="Mi0FA_EbYf_zvgRcC2HL-55" value="&lt;font style=&quot;color: light-dark(rgb(0, 0, 0), rgb(255, 217, 102));&quot;&gt;The texture coordinates (u, v) for a point(x, y, z)&lt;br&gt;&amp;nbsp;are found using the following computation:&lt;/font&gt;" style="text;html=1;align=center;verticalAlign=middle;resizable=0;points=[];autosize=1;strokeColor=default;fillColor=none;fontFamily=Architects Daughter;fontSource=https%3A%2F%2Ffonts.googleapis.com%2Fcss%3Ffamily%3DArchitects%2BDaughter;" parent="Mi0FA_EbYf_zvgRcC2HL-50" vertex="1">
          <mxGeometry x="290" y="380" width="300" height="40" as="geometry" />
        </mxCell>
        <mxCell id="Mi0FA_EbYf_zvgRcC2HL-56" value="&lt;div&gt;u = x * u_axis.x + y * u_axis.y + z * u_axis.z + u_offset&lt;/div&gt;&lt;div&gt;v = x * v_axis.x + y * v_axis.y + z * v_axis.z + v_offset&lt;/div&gt;" style="text;html=1;align=center;verticalAlign=middle;resizable=0;points=[];autosize=1;strokeColor=default;fillColor=none;fontFamily=Architects Daughter;fontSource=https%3A%2F%2Ffonts.googleapis.com%2Fcss%3Ffamily%3DArchitects%2BDaughter;" parent="Mi0FA_EbYf_zvgRcC2HL-50" vertex="1">
          <mxGeometry x="100" y="440" width="340" height="40" as="geometry" />
        </mxCell>
        <mxCell id="Mi0FA_EbYf_zvgRcC2HL-58" style="edgeStyle=orthogonalEdgeStyle;rounded=0;sketch=1;hachureGap=4;jiggle=2;curveFitting=1;orthogonalLoop=1;jettySize=auto;html=1;entryX=0.479;entryY=-0.088;entryDx=0;entryDy=0;entryPerimeter=0;fontFamily=Architects Daughter;fontSource=https%3A%2F%2Ffonts.googleapis.com%2Fcss%3Ffamily%3DArchitects%2BDaughter;fillColor=#d5e8d4;strokeColor=#82b366;" parent="Mi0FA_EbYf_zvgRcC2HL-50" source="Mi0FA_EbYf_zvgRcC2HL-52" target="Mi0FA_EbYf_zvgRcC2HL-56" edge="1">
          <mxGeometry relative="1" as="geometry" />
        </mxCell>
        <mxCell id="Mi0FA_EbYf_zvgRcC2HL-65" value="* The u_offset &amp;amp; v_offset shift the texture along the specified axis *" style="text;html=1;align=center;verticalAlign=middle;resizable=0;points=[];autosize=1;strokeColor=none;fillColor=none;fontFamily=Architects Daughter;fontSource=https%3A%2F%2Ffonts.googleapis.com%2Fcss%3Ffamily%3DArchitects%2BDaughter;fontColor=light-dark(#000000,#FFD966);" parent="Mi0FA_EbYf_zvgRcC2HL-50" vertex="1">
          <mxGeometry x="50" y="490" width="420" height="30" as="geometry" />
        </mxCell>
        <mxCell id="Mi0FA_EbYf_zvgRcC2HL-54" value="VERTEX&lt;br&gt;(x, y, z)" style="ellipse;whiteSpace=wrap;html=1;sketch=1;hachureGap=4;jiggle=2;curveFitting=1;fontFamily=Architects Daughter;fontSource=https%3A%2F%2Ffonts.googleapis.com%2Fcss%3Ffamily%3DArchitects%2BDaughter;fillColor=#dae8fc;strokeColor=#6c8ebf;" parent="Mi0FA_EbYf_zvgRcC2HL-59" vertex="1">
          <mxGeometry y="445" width="50" height="50" as="geometry" />
        </mxCell>
        <mxCell id="Mi0FA_EbYf_zvgRcC2HL-57" style="edgeStyle=orthogonalEdgeStyle;rounded=0;sketch=1;hachureGap=4;jiggle=2;curveFitting=1;orthogonalLoop=1;jettySize=auto;html=1;entryX=0;entryY=0.5;entryDx=0;entryDy=0;entryPerimeter=0;fontFamily=Architects Daughter;fontSource=https%3A%2F%2Ffonts.googleapis.com%2Fcss%3Ffamily%3DArchitects%2BDaughter;" parent="Mi0FA_EbYf_zvgRcC2HL-59" source="Mi0FA_EbYf_zvgRcC2HL-54" target="Mi0FA_EbYf_zvgRcC2HL-56" edge="1">
          <mxGeometry relative="1" as="geometry" />
        </mxCell>
        <mxCell id="Mi0FA_EbYf_zvgRcC2HL-60" style="edgeStyle=orthogonalEdgeStyle;rounded=0;sketch=1;hachureGap=4;jiggle=2;curveFitting=1;orthogonalLoop=1;jettySize=auto;html=1;entryX=-0.004;entryY=0.021;entryDx=0;entryDy=0;entryPerimeter=0;fontFamily=Architects Daughter;fontSource=https%3A%2F%2Ffonts.googleapis.com%2Fcss%3Ffamily%3DArchitects%2BDaughter;" parent="1" source="Mi0FA_EbYf_zvgRcC2HL-21" target="Mi0FA_EbYf_zvgRcC2HL-50" edge="1">
          <mxGeometry relative="1" as="geometry" />
        </mxCell>
        <mxCell id="Mi0FA_EbYf_zvgRcC2HL-61" value="&lt;b&gt;&lt;font style=&quot;color: light-dark(rgb(0, 0, 0), rgb(255, 102, 255));&quot;&gt;texture_info&lt;/font&gt;&lt;/b&gt;" style="edgeLabel;html=1;align=center;verticalAlign=middle;resizable=0;points=[];sketch=1;hachureGap=4;jiggle=2;curveFitting=1;fontFamily=Architects Daughter;fontSource=https%3A%2F%2Ffonts.googleapis.com%2Fcss%3Ffamily%3DArchitects%2BDaughter;" parent="Mi0FA_EbYf_zvgRcC2HL-60" vertex="1" connectable="0">
          <mxGeometry x="-0.0227" y="1" relative="1" as="geometry">
            <mxPoint as="offset" />
          </mxGeometry>
        </mxCell>
        <mxCell id="GezH2M0aC1q7fJkez5dh-2" value="FACE-EDGE ARRAY" style="swimlane;whiteSpace=wrap;html=1;sketch=1;hachureGap=4;jiggle=2;curveFitting=1;fontFamily=Architects Daughter;fontSource=https%3A%2F%2Ffonts.googleapis.com%2Fcss%3Ffamily%3DArchitects%2BDaughter;gradientColor=light-dark(#000000,#21B369);" vertex="1" parent="1">
          <mxGeometry x="1665" y="-40" width="370" height="230" as="geometry" />
        </mxCell>
        <mxCell id="GezH2M0aC1q7fJkez5dh-3" value="&lt;ul&gt;&lt;li&gt;Face refers to this index (order)&lt;/li&gt;&lt;li&gt;edge_idx refers to edge (order)&lt;/li&gt;&lt;/ul&gt;" style="text;html=1;align=left;verticalAlign=middle;resizable=0;points=[];autosize=1;strokeColor=none;fillColor=none;fontFamily=Architects Daughter;fontSource=https%3A%2F%2Ffonts.googleapis.com%2Fcss%3Ffamily%3DArchitects%2BDaughter;" vertex="1" parent="GezH2M0aC1q7fJkez5dh-2">
          <mxGeometry y="20" width="250" height="70" as="geometry" />
        </mxCell>
        <mxCell id="GezH2M0aC1q7fJkez5dh-4" value="&lt;div&gt;struct bsp_faceedge&lt;/div&gt;&lt;div&gt;{&lt;/div&gt;&lt;div&gt;&amp;nbsp; &amp;nbsp; u32&lt;span style=&quot;background-color: transparent; color: light-dark(rgb(0, 0, 0), rgb(255, 255, 255));&quot;&gt;&amp;nbsp;edge_idx;&lt;/span&gt;&lt;/div&gt;&lt;div&gt;};&lt;/div&gt;" style="text;html=1;align=left;verticalAlign=middle;resizable=0;points=[];autosize=1;strokeColor=none;fillColor=default;fontFamily=Architects Daughter;fontSource=https%3A%2F%2Ffonts.googleapis.com%2Fcss%3Ffamily%3DArchitects%2BDaughter;" vertex="1" parent="GezH2M0aC1q7fJkez5dh-2">
          <mxGeometry x="20" y="140" width="140" height="70" as="geometry" />
        </mxCell>
        <mxCell id="GezH2M0aC1q7fJkez5dh-6" style="edgeStyle=orthogonalEdgeStyle;rounded=0;sketch=1;hachureGap=4;jiggle=2;curveFitting=1;orthogonalLoop=1;jettySize=auto;html=1;fontFamily=Architects Daughter;fontSource=https%3A%2F%2Ffonts.googleapis.com%2Fcss%3Ffamily%3DArchitects%2BDaughter;" edge="1" parent="1" source="GezH2M0aC1q7fJkez5dh-4" target="Mi0FA_EbYf_zvgRcC2HL-22">
          <mxGeometry relative="1" as="geometry" />
        </mxCell>
      </root>
    </mxGraphModel>
  </diagram>
</mxfile>
